<svg width="18" height="18" viewBox="0 0 18 18" fill="none" xmlns="http://www.w3.org/2000/svg">
<path id="Rectangle 946" d="M1 1V13C1 14.8856 1 15.8284 1.58579 16.4142C2.17157 17 3.11438 17 5 17H17M4.11111 13.4444L4.55408 12.2632C4.74631 11.7506 4.84243 11.4943 4.96433 11.3561C5.29729 10.9789 5.85869 10.9078 6.27518 11.1901C6.42767 11.2935 6.58465 11.5177 6.8986 11.9663V11.9663C7.24996 12.4682 7.42564 12.7192 7.58743 12.8248C8.03086 13.1143 8.62308 13.0079 8.93801 12.5821C9.05291 12.4268 9.13024 12.1304 9.2849 11.5375L10.3905 7.29935C10.567 6.62295 10.6552 6.28475 10.7819 6.12213C11.1172 5.69155 11.7359 5.60942 12.172 5.93758C12.3367 6.06152 12.5102 6.36499 12.857 6.97192V6.97192C13.2557 7.6697 13.4551 8.01859 13.6297 8.14509C14.0939 8.48129 14.7451 8.35933 15.0562 7.87796C15.1733 7.69682 15.2329 7.29943 15.3521 6.50466L16.1111 1.44444" stroke="#2D2D2D" stroke-width="1.6" stroke-linecap="round" stroke-linejoin="round"/>
</svg>
