<svg width="16" height="18" viewBox="0 0 16 18" fill="none" xmlns="http://www.w3.org/2000/svg">
<path d="M1 5V13C1 14.8856 1 15.8284 1.58579 16.4142C2.17157 17 3.11438 17 5 17H11C12.8856 17 13.8284 17 14.4142 16.4142C15 15.8284 15 14.8856 15 13V5C15 3.11438 15 2.17157 14.4142 1.58579C13.8284 1 12.8856 1 11 1H5C3.11438 1 2.17157 1 1.58579 1.58579C1 2.17157 1 3.11438 1 5Z" stroke="#2D2D2D" stroke-width="1.6"/>
<path d="M5.5 12.1111H8M5.5 8.55556H10.5M5.5 5H10.5" stroke="#2D2D2D" stroke-width="1.6" stroke-linecap="round" stroke-linejoin="round"/>
</svg>
