<svg width="16" height="20" viewBox="0 0 16 20" fill="none" xmlns="http://www.w3.org/2000/svg">
<g id="Group 823">
<path id="Vector" d="M14.694 2.634L12.866 0.806C12.346 0.286 11.656 0 10.922 0H2.75C1.233 0 0 1.233 0 2.75V16.75C0 18.267 1.233 19.5 2.75 19.5H12.75C14.267 19.5 15.5 18.267 15.5 16.75V4.579C15.5 3.844 15.214 3.154 14.694 2.634ZM13.633 3.695C13.722 3.784 13.78 3.893 13.838 4.001H11.749C11.611 4.001 11.499 3.889 11.499 3.751V1.662C11.608 1.72 11.717 1.778 11.805 1.866L13.633 3.694V3.695ZM12.749 18.001H2.75C2.061 18.001 1.5 17.44 1.5 16.751V2.75C1.5 2.061 2.061 1.5 2.75 1.5H10V3.75C10 4.715 10.785 5.5 11.75 5.5H14V16.75C14 17.439 13.439 18 12.75 18L12.749 18.001Z" fill="#2D2D2D"/>
<g id="Group">
<path id="Vector_2" d="M10.75 9.5H4.75C4.336 9.5 4 9.164 4 8.75C4 8.336 4.336 8 4.75 8H10.75C11.164 8 11.5 8.336 11.5 8.75C11.5 9.164 11.164 9.5 10.75 9.5Z" fill="#2D2D2D"/>
<path id="Vector_3" d="M10.75 12.5H4.75C4.336 12.5 4 12.164 4 11.75C4 11.336 4.336 11 4.75 11H10.75C11.164 11 11.5 11.336 11.5 11.75C11.5 12.164 11.164 12.5 10.75 12.5Z" fill="#2D2D2D"/>
<path id="Vector_4" d="M8.75 15.5H4.75C4.336 15.5 4 15.164 4 14.75C4 14.336 4.336 14 4.75 14H8.75C9.164 14 9.5 14.336 9.5 14.75C9.5 15.164 9.164 15.5 8.75 15.5Z" fill="#2D2D2D"/>
</g>
</g>
</svg>
