<svg width="20" height="20" viewBox="0 0 20 20" fill="none" xmlns="http://www.w3.org/2000/svg">
<path d="M1 1L19 19" stroke="#2D2D2D" stroke-width="1.5" stroke-linecap="round" stroke-linejoin="round"/>
<path d="M8.5 8.67712C8.1888 9.02962 8 9.49282 8 10C8 11.1045 8.8954 12 10 12C10.5072 12 10.9703 11.8112 11.3229 11.5" stroke="#2D2D2D" stroke-width="1.5" stroke-linecap="round" stroke-linejoin="round"/>
<path d="M5.36185 5.56104C3.68002 6.73962 2.27894 8.41874 1 9.99994C2.88856 12.9909 6.2817 15.9999 10 15.9999C11.5499 15.9999 13.0434 15.4771 14.3949 14.6507" stroke="#2D2D2D" stroke-width="1.5" stroke-linecap="round" stroke-linejoin="round"/>
<path d="M10 4C14.0084 4 16.7015 7.1582 19 10C18.6815 10.5043 18.3203 11.0092 17.922 11.5" stroke="#2D2D2D" stroke-width="1.5" stroke-linecap="round" stroke-linejoin="round"/>
</svg>
