<svg width="48" height="48" viewBox="0 0 48 48" fill="none" xmlns="http://www.w3.org/2000/svg">
<g id="Layer 41">
<path id="Vector" d="M24 0C19.2532 0 14.6131 1.40757 10.6663 4.04472C6.71954 6.68187 3.6434 10.4302 1.8269 14.8156C0.0103987 19.201 -0.464881 24.0266 0.461163 28.6821C1.38721 33.3377 3.67298 37.6141 7.02944 40.9705C10.3859 44.327 14.6623 46.6127 19.3178 47.5388C23.9734 48.4648 28.799 47.9896 33.1844 46.173C37.5698 44.3565 41.3181 41.2804 43.9552 37.3336C46.5924 33.3869 47.9999 28.7467 47.9999 24C47.9948 17.6364 45.4646 11.5349 40.9648 7.0351C36.4651 2.53535 30.3636 0.00513609 24 0ZM24 1.45454C28.2851 1.45332 32.4818 2.67385 36.0979 4.97303C39.714 7.2722 42.5996 10.5547 44.4164 14.4356C46.2332 18.3166 46.9059 22.635 46.3555 26.8847C45.8051 31.1343 44.0546 35.139 41.309 38.429C40.1787 35.6129 38.3761 33.1163 36.0587 31.1572C33.7413 29.1981 30.9795 27.8362 28.0145 27.1903C29.6826 26.2957 31.004 24.8698 31.7693 23.1386C32.5345 21.4075 32.6997 19.4703 32.2385 17.6346C31.7774 15.7989 30.7163 14.1698 29.2238 13.0058C27.7313 11.8419 25.8927 11.2097 24 11.2097C22.1072 11.2097 20.2687 11.8419 18.7762 13.0058C17.2836 14.1698 16.2226 15.7989 15.7614 17.6346C15.3003 19.4703 15.4654 21.4075 16.2307 23.1386C16.9959 24.8698 18.3174 26.2957 19.9854 27.1903C17.0204 27.8362 14.2587 29.1981 11.9412 31.1572C9.62383 33.1163 7.82125 35.6129 6.69091 38.429C3.9454 35.139 2.19483 31.1343 1.64446 26.8847C1.09409 22.635 1.76674 18.3166 3.58354 14.4356C5.40034 10.5547 8.28598 7.2722 11.9021 4.97303C15.5182 2.67385 19.7148 1.45332 24 1.45454ZM16.96 19.7139C16.9581 18.3211 17.3693 16.9591 18.1417 15.8001C18.9141 14.6411 20.0129 13.7372 21.2992 13.2029C22.5854 12.6686 24.0012 12.5278 25.3675 12.7983C26.7337 13.0689 27.989 13.7386 28.9746 14.7228C29.9601 15.7069 30.6316 16.9613 30.904 18.3272C31.1764 19.6931 31.0376 21.1091 30.505 22.3961C29.9725 23.683 29.0701 24.7831 27.9122 25.5571C26.7543 26.3311 25.3928 26.7442 24 26.7442C22.1353 26.7417 20.3476 26.0004 19.0282 24.6828C17.7088 23.3652 16.9651 21.5786 16.96 19.7139ZM24 46.5454C20.9715 46.5477 17.9739 45.9373 15.1875 44.7507C12.4012 43.5642 9.8837 41.8261 7.78667 39.6412C8.97905 36.2953 11.1774 33.4002 14.0802 31.3531C16.9829 29.306 20.448 28.207 24 28.207C27.552 28.207 31.017 29.306 33.9198 31.3531C36.8226 33.4002 39.0209 36.2953 40.2133 39.6412C38.1163 41.8261 35.5988 43.5642 32.8124 44.7507C30.0261 45.9373 27.0285 46.5477 24 46.5454Z" fill="#2D2D2D"/>
</g>
</svg>
