<svg width="20" height="20" viewBox="0 0 20 20" fill="none" xmlns="http://www.w3.org/2000/svg">
<path d="M2.49936 18.125C2.36624 18.125 2.23249 18.0831 2.11936 17.9956C1.84561 17.785 1.79436 17.3925 2.00436 17.1194L8.25436 8.99438C8.36436 8.85125 8.52999 8.76313 8.70999 8.75125C8.88936 8.7425 9.06436 8.80563 9.19186 8.93313L12.4119 12.1531L17.6112 4.64438C17.8075 4.36063 18.1969 4.29 18.4812 4.48625C18.765 4.6825 18.8356 5.0725 18.6394 5.35625L13.0144 13.4813C12.9087 13.6338 12.7406 13.7313 12.5569 13.7481C12.3719 13.7644 12.19 13.6988 12.0587 13.5675L8.81249 10.3213L2.99561 17.8806C2.87249 18.0413 2.68686 18.125 2.49936 18.125Z" fill="#2D2D2D"/>
<path d="M18.125 18.75H3.125C2.09125 18.75 1.25 17.9088 1.25 16.875V1.875C1.25 1.52938 1.52938 1.25 1.875 1.25C2.22062 1.25 2.5 1.52938 2.5 1.875V16.875C2.5 17.22 2.78 17.5 3.125 17.5H18.125C18.4706 17.5 18.75 17.7794 18.75 18.125C18.75 18.4706 18.4706 18.75 18.125 18.75Z" fill="#2D2D2D"/>
</svg>
