<svg width="22" height="22" viewBox="0 0 22 22" fill="none" xmlns="http://www.w3.org/2000/svg">
<g id="icon">
<path id="Vector" d="M11.6875 6.875H10.3125C9.17537 6.875 8.25 7.80037 8.25 8.9375V18.5625C8.25 19.6996 9.17537 20.625 10.3125 20.625H11.6875C12.8246 20.625 13.75 19.6996 13.75 18.5625V8.9375C13.75 7.80037 12.8246 6.875 11.6875 6.875ZM12.375 18.5625C12.375 18.9413 12.0663 19.25 11.6875 19.25H10.3125C9.93369 19.25 9.625 18.9413 9.625 18.5625V8.9375C9.625 8.55869 9.93369 8.25 10.3125 8.25H11.6875C12.0663 8.25 12.375 8.55869 12.375 8.9375V18.5625ZM4.8125 10.3125H3.4375C2.30037 10.3125 1.375 11.2379 1.375 12.375V18.5625C1.375 19.6996 2.30037 20.625 3.4375 20.625H4.8125C5.94963 20.625 6.875 19.6996 6.875 18.5625V12.375C6.875 11.2379 5.94963 10.3125 4.8125 10.3125ZM5.5 18.5625C5.5 18.9413 5.19131 19.25 4.8125 19.25H3.4375C3.05869 19.25 2.75 18.9413 2.75 18.5625V12.375C2.75 11.9962 3.05869 11.6875 3.4375 11.6875H4.8125C5.19131 11.6875 5.5 11.9962 5.5 12.375V18.5625ZM18.5625 1.375H17.1875C16.0504 1.375 15.125 2.30037 15.125 3.4375V18.5625C15.125 19.6996 16.0504 20.625 17.1875 20.625H18.5625C19.6996 20.625 20.625 19.6996 20.625 18.5625V3.4375C20.625 2.30037 19.6996 1.375 18.5625 1.375ZM19.25 18.5625C19.25 18.9413 18.9413 19.25 18.5625 19.25H17.1875C16.8087 19.25 16.5 18.9413 16.5 18.5625V3.4375C16.5 3.05869 16.8087 2.75 17.1875 2.75H18.5625C18.9413 2.75 19.25 3.05869 19.25 3.4375V18.5625Z" fill="#111111"/>
<path id="Vector_2" d="M11 4.8125C11 5.192 11.308 5.5 11.6875 5.5C12.067 5.5 12.375 5.192 12.375 4.8125V2.0625C12.375 1.683 12.067 1.375 11.6875 1.375H8.93748C8.55798 1.375 8.24998 1.683 8.24998 2.0625C8.24998 2.442 8.55798 2.75 8.93748 2.75H9.95429C8.93266 3.68431 7.79416 4.50794 6.54498 5.19063C5.10123 5.97988 3.53923 6.57938 1.90229 6.97263C1.5331 7.06131 1.30554 7.43187 1.39423 7.80175C1.46985 8.11662 1.75173 8.32906 2.06179 8.32906C2.11541 8.32906 2.16904 8.32287 2.22266 8.30981C3.97854 7.88837 5.65466 7.24488 7.20429 6.39719C8.59854 5.63475 9.86698 4.708 11 3.65406V4.8125Z" fill="#111111"/>
</g>
</svg>
