<svg width="15" height="16" viewBox="0 0 15 16" fill="none" xmlns="http://www.w3.org/2000/svg">
<g id="Group 1217">
<path id="Vector" d="M14.2742 16H0.725806C0.325161 16 0 15.552 0 15C0 14.448 0.325161 14 0.725806 14H14.2742C14.6748 14 15 14.448 15 15C15 15.552 14.6748 16 14.2742 16Z" fill="#50D05D"/>
<path id="Vector_2" d="M10.7968 8.68645C10.5233 8.45961 10.0799 8.45961 9.80642 8.68645L8.20098 10.0181V0.580645C8.20098 0.260129 7.88736 0 7.50093 0C7.11451 0 6.80089 0.260129 6.80089 0.580645V10.0173L5.19545 8.68568C4.92196 8.45884 4.4786 8.45884 4.20511 8.68568C3.93163 8.91252 3.93163 9.28026 4.20511 9.5071L7.0053 11.8297C7.14158 11.9427 7.32079 12 7.5 12C7.67921 12 7.85842 11.9435 7.9947 11.8297L10.7949 9.5071C11.0684 9.28026 11.0684 8.91252 10.7949 8.68568L10.7968 8.68645Z" fill="#50D05D"/>
</g>
</svg>
