<svg width="116" height="71" viewBox="0 0 116 71" fill="none" xmlns="http://www.w3.org/2000/svg">
<g id="logo">
<path id="Vector" d="M-0.00012207 55.8912H3.27292C3.34161 57.403 4.94379 58.0407 6.50031 58.0407C7.91946 58.0407 9.56748 57.6865 9.56748 55.9621C9.56748 54.0725 7.59887 53.9071 6.06537 53.7889C3.15858 53.5292 0.228758 52.5135 0.228758 49.0885C0.228758 45.4273 3.13556 43.8918 6.31709 43.8918C9.31559 43.8918 12.4284 45.191 12.4284 48.8996H9.22407C9.04104 47.5531 7.69057 46.9862 6.31709 46.9862C4.94379 46.9862 3.59332 47.7421 3.59332 49.0176C3.59332 50.4821 4.98964 50.8128 6.66051 51.0018C10.0481 51.3089 12.9549 52.0884 12.9549 55.9621C12.9549 59.8595 9.68184 61.0642 6.52314 61.1351C3.31877 61.1351 -0.00012207 59.5053 -0.00012207 55.8912ZM19.3564 45.8761V49.4191H22.9499V51.8993H19.3564V56.3165C19.3564 58.6785 21.2562 58.7967 23.0872 58.1116L23.3848 60.6154C19.5853 61.702 16.2206 61.0642 16.2206 56.3873V51.8993L14.1376 51.6867V49.4191H16.4494L16.7929 45.8761H19.3564ZM32.5219 59.0329C31.8583 60.4501 30.1187 60.9934 28.6996 60.9934C26.6394 60.9934 24.7627 59.6233 24.694 57.4266C24.5795 54.6393 26.5251 53.3165 28.9741 53.3165C29.9583 53.3165 31.0799 53.5056 31.9039 54.0489V53.2694C31.9039 51.8758 30.2559 51.6396 29.1573 51.6396C27.9899 51.6396 26.9142 51.7813 25.9758 52.3246L25.5637 49.9624C26.7311 49.3955 28.2188 49.112 29.7066 49.112C32.5449 49.112 34.9711 50.0806 34.9711 53.3638V57.4739C34.9711 58.4423 34.9483 59.0093 36.001 58.9384L36.024 60.7807C34.3532 61.1587 32.5219 61.0642 32.5219 59.0329ZM31.8353 56.6944V56.1038C31.1945 55.655 30.3476 55.4425 29.5464 55.4425C28.5394 55.5134 27.7154 56.1038 27.8297 57.2139C27.8984 58.0407 28.6079 58.4423 29.3404 58.4423C30.3933 58.4423 31.7209 57.899 31.8353 56.6944ZM41.5795 50.9781C42.0372 49.6791 43.319 49.0411 44.6695 49.0411C45.5163 49.0176 46.386 49.2775 47.027 49.7735L46.3173 52.537C45.6537 52.0884 44.9668 51.8993 44.2574 51.9231C42.8612 51.9231 41.671 52.8679 41.671 54.6157V60.7807H38.5351V52.7497C38.5351 51.8049 38.4436 51.1907 37.4365 51.356V49.3247C39.0387 48.9467 41.3962 48.9467 41.5795 50.9781Z" fill="#2D2D2D"/>
<path id="Vector_2" d="M47.027 52.7563C47.027 47.3496 51.0779 44.3793 55.3616 44.4489C58.6442 44.4489 62.1362 46.2125 62.8813 50.227H59.5055C58.7839 48.3937 57.3171 47.5816 55.3616 47.5816C52.4747 47.5816 50.5424 49.6701 50.5424 52.7563C50.5424 55.5411 52.4282 57.8616 55.3383 57.8616C57.3637 57.8616 59.0167 56.9102 59.5754 54.9377H62.9279C62.2295 59.2307 58.7605 61.0175 55.3616 61.0175C51.0779 61.0175 47.027 58.1401 47.027 52.7563ZM76.3083 60.8551H73.0256V54.3809C73.0955 52.8028 72.1643 51.9906 70.9536 51.9906C69.6499 51.9674 68.5558 52.8956 68.5558 54.4505V60.8551H65.2731V43.9152H68.5558V50.8768C69.2774 49.879 70.4881 49.4149 71.8849 49.4149C75.0976 49.4149 76.3083 51.5033 76.3083 54.3809V60.8551ZM84.402 49.3915C88.4993 49.3915 90.2454 52.1298 89.3841 55.9356H81.7713C81.8876 57.676 83.1914 58.349 84.7511 58.4649C85.2167 58.4881 85.7522 58.5114 86.2412 58.4418C87.2423 58.3257 88.2433 58.0705 88.9185 57.7688L89.291 60.1358C87.9639 60.7623 86.4274 61.1336 84.9375 61.1336C81.166 61.2032 78.5119 58.9059 78.5119 55.1233C78.5818 51.2248 81.422 49.3915 84.402 49.3915ZM84.402 51.8746C83.1681 51.8746 82.0506 52.5476 81.7945 53.8471H86.73C86.7999 52.3852 85.6126 51.8746 84.402 51.8746ZM102.836 53.7079H99.7396C99.3436 52.6636 98.3892 52.1532 97.3881 52.1763C95.9913 52.1995 94.5479 53.2204 94.5479 55.2163C94.5479 57.2351 95.9913 58.3025 97.3881 58.3025C98.4124 58.3025 99.3903 57.7456 99.786 56.5621H102.882C102.417 59.5555 99.8791 61.0639 97.295 61.0871C94.3383 61.1104 91.3119 59.1611 91.3119 55.2163C91.3119 51.2944 94.3615 49.3219 97.3183 49.3219C99.8559 49.3219 102.324 50.784 102.836 53.7079ZM108.364 53.7775H109.155C111.74 53.7775 112.392 51.9443 112.392 49.6469H115.465C115.534 52.0139 114.999 54.0095 112.787 55.1698L116 60.5071V60.8319H112.717L110.04 56.1908C109.761 56.2837 109.458 56.33 109.109 56.33H108.364V60.8319H105.128V43.8918H108.364V53.7775Z" fill="#266BF0"/>
<path id="Vector_3" d="M6.74686 64.4459L8.68393 69.39L10.591 64.4459H11.048L8.68393 70.5405L6.27014 64.4459H6.74686ZM14.2351 64.4459V70.3034H13.8079V64.4459H14.2351ZM21.0855 65.2011L20.7678 65.4295C20.3903 64.9201 20.0327 64.7269 19.4664 64.7269C18.7611 64.7269 18.2248 65.21 18.2248 65.8333C18.2248 66.3076 18.493 66.5624 19.397 66.9486C20.2512 67.3087 20.4201 67.3879 20.7181 67.5546C21.1749 67.8269 21.4133 68.2045 21.4133 68.6788C21.4133 69.6272 20.4895 70.4 19.3473 70.4C18.4333 70.4 17.7678 69.9784 17.3903 69.1442L17.7579 68.9862C17.9169 69.2758 17.9962 69.3989 18.1254 69.5482C18.4035 69.8554 18.8704 70.0399 19.3473 70.0399C20.2313 70.0399 20.9664 69.4253 20.9664 68.6788C20.9664 68.3011 20.7378 67.9938 20.3206 67.7743C20.1021 67.6688 20.0723 67.6512 19.0889 67.221C18.0757 66.7819 17.7779 66.4569 17.7779 65.8246C17.7779 64.9815 18.493 64.3669 19.4763 64.3669C20.1617 64.3669 20.7378 64.6654 21.0855 65.2011ZM25.8334 64.7972V70.3034H25.4064V64.7972H23.7078V64.4459H27.5618V64.7972H25.8334ZM32.976 64.3669C34.8535 64.3669 36.4128 65.7367 36.4128 67.379C36.4128 69.0388 34.8535 70.4 32.9561 70.4C31.0886 70.4 29.549 69.0125 29.549 67.3351C29.549 65.7456 31.1383 64.3669 32.976 64.3669ZM32.976 64.7269C31.3667 64.7269 29.9959 65.9299 29.9959 67.3439C29.9959 68.1342 30.3237 68.8104 30.9596 69.3287C31.5158 69.7765 32.2509 70.0399 32.9561 70.0399C34.615 70.0399 35.9659 68.8456 35.9659 67.379C35.9659 65.9299 34.615 64.7269 32.976 64.7269ZM40.6928 67.5371L42.8582 70.3034H42.3318L40.206 67.5371H40.0074V70.3034H39.5802V64.4459H40.5139C41.1894 64.4459 41.5669 64.5248 41.9145 64.7445C42.3417 65.0079 42.5801 65.4558 42.5801 66.0002C42.5801 66.6062 42.2721 67.0981 41.7456 67.3439C41.4874 67.458 41.2093 67.5108 40.6928 67.5371ZM40.0074 67.1858H40.6431C41.5967 67.1858 42.1431 66.7467 42.1431 65.9915C42.1431 65.5348 41.9145 65.1484 41.5569 64.9728C41.3086 64.8499 40.9807 64.7972 40.5537 64.7972H40.0074V67.1858ZM46.3824 64.4459V70.3034H45.9554V64.4459H46.3824ZM53.3323 68.3802H50.5112L49.627 70.3034H49.1503L51.9315 64.2703L54.693 70.3034H54.2062L53.3323 68.3802ZM53.1733 68.0289L51.9315 65.2539L50.67 68.0289H53.1733ZM61.3881 64.4459L63.3249 69.39L65.2322 64.4459H65.689L63.3249 70.5405L60.9111 64.4459H61.3881ZM71.6177 64.7972H68.8761V66.9223H71.5581V67.2737H68.8761V69.952H71.6177V70.3034H68.4489V64.4459H71.6177V64.7972ZM75.2124 64.4459V70.3034H74.7854V64.4459H75.2124ZM84.0299 65.1221V65.649C83.7218 65.3416 83.563 65.2274 83.2549 65.0781C82.7981 64.8499 82.2717 64.7269 81.7948 64.7269C80.1855 64.7269 78.8147 65.9652 78.8147 67.4053C78.8147 68.1781 79.1824 68.8631 79.8479 69.3637C80.424 69.7941 81.1293 70.0399 81.7948 70.0399C82.3212 70.0399 82.9571 69.873 83.4538 69.5921C83.6622 69.4866 83.7816 69.39 84.0299 69.1618V69.6711C83.3046 70.1805 82.6293 70.4 81.8246 70.4C79.9473 70.4 78.3678 69.0212 78.3678 67.3879C78.3678 65.7456 79.9372 64.3669 81.8048 64.3669C82.649 64.3669 83.3344 64.604 84.0299 65.1221ZM87.6233 64.4459V68.1079C87.6233 68.828 87.673 69.1091 87.8617 69.3637C88.1497 69.7588 88.8053 70.0399 89.4511 70.0399C90.0868 70.0399 90.7424 69.7588 91.0304 69.3637C91.2191 69.1091 91.2688 68.828 91.2688 68.1079V64.4459H91.6959V68.2134C91.6959 68.9862 91.6264 69.2671 91.3483 69.6009C90.9509 70.0926 90.2258 70.4 89.4511 70.4C88.6663 70.4 87.9412 70.0926 87.5438 69.6009C87.2657 69.2671 87.1961 68.9862 87.1961 68.2134V64.4459H87.6233ZM95.6476 64.4459V69.952H97.3263V70.3034H95.2204V64.4459H95.6476ZM103.897 68.3802H101.076L100.192 70.3034H99.7151L102.497 64.2703L105.258 70.3034H104.771L103.897 68.3802ZM103.738 68.0289L102.497 65.2539L101.235 68.0289H103.738ZM109.132 67.5371L111.297 70.3034H110.771L108.645 67.5371H108.446V70.3034H108.019V64.4459H108.953C109.629 64.4459 110.006 64.5248 110.354 64.7445C110.781 65.0079 111.019 65.4558 111.019 66.0002C111.019 66.6062 110.711 67.0981 110.185 67.3439C109.927 67.458 109.648 67.5108 109.132 67.5371ZM108.446 67.1858H109.082C110.036 67.1858 110.582 66.7467 110.582 65.9915C110.582 65.5348 110.354 65.1484 109.996 64.9728C109.748 64.8499 109.42 64.7972 108.993 64.7972H108.446V67.1858Z" fill="#2D2D2D"/>
<path id="Vector_4" d="M42.0743 7.89435L41.2305 7.90494L41.091 8.74798C40.8714 10.0766 40.7566 11.4398 40.7566 12.8308C40.7566 23.498 47.4894 32.5699 56.8795 35.9334L57.2161 36.0539L57.5525 35.9334C66.9428 32.572 73.6756 23.5001 73.6756 12.8329C73.6756 11.4448 73.563 10.0772 73.341 8.74817L73.2004 7.90698L72.3581 7.89639C67.0112 7.82843 61.8703 5.79731 57.8904 2.17999L57.2163 1.56738L56.5419 2.17999C52.5618 5.79656 47.421 7.82694 42.0743 7.89435Z" fill="#266BF0"/>
<path id="Vector (Stroke)" fill-rule="evenodd" clip-rule="evenodd" d="M58.0001 0L59.331 1.24765C63.0798 4.76274 67.9221 6.73654 72.9585 6.80262C72.9585 6.80262 72.9585 6.80262 72.9585 6.80262L74.6213 6.82418L74.8989 8.53741C75.1275 9.94944 75.2431 11.4004 75.2431 12.8708C75.2431 24.1885 68.3186 33.8107 58.6642 37.3762C58.6642 37.3762 58.6641 37.3762 58.664 37.3763L58 37.6217L57.3355 37.3763C47.6814 33.8088 40.7566 24.1865 40.7566 12.8687C40.7566 11.394 40.8745 9.94834 41.1004 8.53909L41.3758 6.8221L43.0414 6.80054C43.0414 6.80054 43.0414 6.80054 43.0414 6.80054C48.0776 6.73502 52.92 4.762 56.6689 1.24763L58.0001 0ZM57.9999 2.79783C53.8916 6.64911 48.5851 8.81122 43.0662 8.883C43.0662 8.88307 43.0661 8.88313 43.0661 8.88319C42.8583 10.1798 42.7497 11.5104 42.7497 12.8687C42.7497 23.276 49.1165 32.13 57.9997 35.4127C66.883 32.1321 73.25 23.2782 73.25 12.8708C73.25 11.5142 73.1434 10.1797 72.9337 8.88507C67.4146 8.81269 62.1081 6.64984 57.9999 2.79783Z" fill="#2D2D2D"/>
<path id="Vector_5" d="M65.6809 10.9729L54.9903 22.7296L51.8864 20.3788H50.1621L54.9903 28.2162L67.4054 10.9729H65.6809Z" fill="#EEEEEE"/>
</g>
</svg>
