<svg width="81" height="55" viewBox="0 0 81 55" fill="none" xmlns="http://www.w3.org/2000/svg">
<g id="Group 77">
<path id="Vector" d="M3.49552 50.4194H4.24167L2.49103 54.4372H1.75623L0 50.4194H0.809248L2.14652 53.5188L3.49552 50.4194ZM5.95693 54.4372V50.4194H6.70308V54.4372H5.95693ZM10.3269 54.4945C9.70117 54.4945 9.07562 54.2994 8.74265 54.0124L9.00099 53.4327C9.32242 53.691 9.83313 53.8747 10.3269 53.8747C10.9525 53.8747 11.2166 53.6508 11.2166 53.3523C11.2166 52.4857 8.82882 53.0539 8.82882 51.5616C8.82882 50.913 9.3453 50.3621 10.4473 50.3621C10.9296 50.3621 11.4345 50.4882 11.7848 50.7179L11.5493 51.2975C11.1877 51.0851 10.7918 50.9818 10.4416 50.9818C9.82177 50.9818 9.56921 51.2229 9.56921 51.5272C9.56921 52.3824 11.9512 51.8255 11.9512 53.3007C11.9512 53.9436 11.4289 54.4945 10.3269 54.4945ZM14.7415 54.4372V51.0507H13.4098V50.4194H16.8192V51.0507H15.4877V54.4372H14.7415ZM20.4915 54.4945C19.2459 54.4945 18.3276 53.6164 18.3276 52.4282C18.3276 51.2402 19.2459 50.3621 20.4915 50.3621C21.737 50.3621 22.6553 51.2344 22.6553 52.4282C22.6553 53.6221 21.737 54.4945 20.4915 54.4945ZM20.4915 53.8403C21.3007 53.8403 21.9034 53.249 21.9034 52.4282C21.9034 51.6076 21.3007 51.0163 20.4915 51.0163C19.6822 51.0163 19.0796 51.6076 19.0796 52.4282C19.0796 53.249 19.6822 53.8403 20.4915 53.8403ZM28.17 54.4372H27.3665L26.5457 53.2605C26.494 53.2663 26.4424 53.2663 26.3907 53.2663H25.4839V54.4372H24.7376V50.4194H26.3907C27.4467 50.4194 28.1011 50.9589 28.1011 51.8486C28.1011 52.457 27.7912 52.9046 27.2459 53.117L28.17 54.4372ZM27.3492 51.8486C27.3492 51.3435 27.0107 51.0507 26.3563 51.0507H25.4839V52.6521H26.3563C27.0107 52.6521 27.3492 52.3537 27.3492 51.8486ZM30.2274 54.4372V50.4194H30.9736V54.4372H30.2274ZM36.3592 54.4372L35.9574 53.5073H33.9486L33.5525 54.4372H32.7835L34.5915 50.4194H35.3261L37.1398 54.4372H36.3592ZM34.2012 52.922H35.7106L34.9531 51.1655L34.2012 52.922ZM44.7472 50.4194H45.4933L43.7427 54.4372H43.0081L41.2516 50.4194H42.0611L43.3984 53.5188L44.7472 50.4194ZM47.9549 53.8116H50.222V54.4372H47.2088V50.4194H50.1416V51.0449H47.9549V52.0896H49.8948V52.7038H47.9549V53.8116ZM52.3453 54.4372V50.4194H53.0915V54.4372H52.3453ZM57.3293 54.4945C56.1011 54.4945 55.1826 53.6279 55.1826 52.4282C55.1826 51.2286 56.1011 50.3621 57.335 50.3621C57.9894 50.3621 58.5519 50.5973 58.9249 51.0336L58.4428 51.487C58.1501 51.1713 57.7884 51.0163 57.3695 51.0163C56.5372 51.0163 55.9345 51.6018 55.9345 52.4282C55.9345 53.2547 56.5372 53.8403 57.3695 53.8403C57.7884 53.8403 58.1501 53.6852 58.4428 53.3638L58.9249 53.823C58.5519 54.2592 57.9894 54.4945 57.3293 54.4945ZM62.6308 54.4945C61.5288 54.4945 60.8688 53.8574 60.8688 52.6865V50.4194H61.615V52.6578C61.615 53.4844 61.9882 53.8403 62.6366 53.8403C63.2852 53.8403 63.6526 53.4844 63.6526 52.6578V50.4194H64.3873V52.6865C64.3873 53.8574 63.7273 54.4945 62.6308 54.4945ZM66.7236 54.4372V50.4194H67.4698V53.8058H69.5705V54.4372H66.7236ZM74.4868 54.4372L74.085 53.5073H72.076L71.6799 54.4372H70.9109L72.7188 50.4194H73.4536L75.2674 54.4372H74.4868ZM72.3285 52.922H73.8382L73.0805 51.1655L72.3285 52.922ZM80.502 54.4372H79.6985L78.8777 53.2605C78.826 53.2663 78.7745 53.2663 78.7227 53.2663H77.8159V54.4372H77.0698V50.4194H78.7227C79.7787 50.4194 80.4331 50.9589 80.4331 51.8486C80.4331 52.457 80.1233 52.9046 79.5779 53.117L80.502 54.4372ZM79.6812 51.8486C79.6812 51.3435 79.3427 51.0507 78.6883 51.0507H77.8159V52.6521H78.6883C79.3427 52.6521 79.6812 52.3537 79.6812 51.8486Z" fill="#111111"/>
<path id="Vector_2" d="M6.14736 15.5686V39.1539H20.2908V43.088H2.21326V15.5686H6.14736ZM48.5972 39.1539C48.5972 39.6912 48.4949 40.2031 48.2902 40.6891C48.0855 41.1625 47.8041 41.5784 47.4457 41.9366C47.0876 42.2948 46.6653 42.5764 46.1793 42.781C45.7059 42.9857 45.2006 43.088 44.6631 43.088H28.946C28.4085 43.088 27.8968 42.9857 27.4107 42.781C26.9374 42.5764 26.5215 42.2948 26.1633 41.9366C25.8051 41.5784 25.5235 41.1625 25.3189 40.6891C25.1142 40.2031 25.0119 39.6912 25.0119 39.1539V19.5027C25.0119 18.9653 25.1142 18.4599 25.3189 17.9865C25.5235 17.5005 25.8051 17.0846 26.1633 16.7391C26.5215 16.3809 26.9374 16.0995 27.4107 15.8948C27.8968 15.6773 28.4085 15.5686 28.946 15.5686H44.6631C45.2006 15.5686 45.7059 15.6773 46.1793 15.8948C46.6653 16.0995 47.0876 16.3809 47.4457 16.7391C47.8041 17.0846 48.0855 17.5005 48.2902 17.9865C48.4949 18.4599 48.5972 18.9653 48.5972 19.5027V39.1539ZM28.946 19.5027V39.1539H44.6631V19.5027H28.946ZM55.6786 19.5027C55.6786 18.9653 55.781 18.4599 55.9856 17.9865C56.1903 17.5005 56.4719 17.0846 56.8301 16.7391C57.1883 16.3809 57.6041 16.0995 58.0775 15.8948C58.5636 15.6773 59.0755 15.5686 59.6127 15.5686H74.5432C75.0804 15.5686 75.5859 15.6773 76.0591 15.8948C76.5454 16.0995 76.9676 16.3809 77.3258 16.7391C77.684 17.0846 77.9656 17.5005 78.1702 17.9865C78.3749 18.4599 78.4772 18.9653 78.4772 19.5027V23.0528H74.5432V19.5027H59.6127V39.1539H74.5432V32.4755H67.0779V28.5414H78.4772V39.1539C78.4772 39.6912 78.3749 40.2031 78.1702 40.6891C77.9656 41.1625 77.684 41.5784 77.3258 41.9366C76.9676 42.2948 76.5454 42.5764 76.0591 42.781C75.5859 42.9857 75.0804 43.088 74.5432 43.088H59.6127C59.0755 43.088 58.5636 42.9857 58.0775 42.781C57.6041 42.5764 57.1883 42.2948 56.8301 41.9366C56.4719 41.5784 56.1903 41.1625 55.9856 40.6891C55.781 40.2031 55.6786 39.6912 55.6786 39.1539V19.5027Z" fill="#111111"/>
<path id="Vector_3" d="M30.1738 19.7561C28.4063 17.2626 24.2694 19.6511 26.0466 22.1638C29.0943 26.4726 31.6546 31.0011 33.6038 35.9024C34.4063 37.8991 37.645 38.4342 38.2182 35.9024C40.922 23.8645 46.062 9.94433 57.9759 4.37442C60.756 3.07505 58.3388 -1.04275 55.5681 0.247005C44.648 5.35833 38.6768 16.8327 35.2852 28.1923C33.7888 25.2596 32.0805 22.4401 30.1738 19.7561Z" fill="#50D05D"/>
</g>
</svg>
