<svg width="136" height="40" viewBox="0 0 136 40" fill="none" xmlns="http://www.w3.org/2000/svg">
<mask id="mask0_6979_23291" style="mask-type:luminance" maskUnits="userSpaceOnUse" x="-1" y="0" width="41" height="30">
<path d="M39.2334 0.0712891H-0.000244141V29.9635H39.2334V0.0712891Z" fill="white"/>
</mask>
<g mask="url(#mask0_6979_23291)">
<path d="M28.671 15.0174H21.1398L22.6344 7.56104C22.6344 7.56104 26.1301 7.56104 26.155 7.56104C26.1883 7.56104 27.6496 9.16349 27.6746 9.16349C27.6746 9.18022 28.8537 11.9458 28.8454 11.962C28.8454 11.9787 28.6793 15.0012 28.671 15.0174Z" fill="black"/>
<path d="M13.575 15.0173H6.04382L7.53013 7.56909H15.0945L13.575 15.0173Z" fill="black"/>
<path d="M25.6316 29.9305H18.1005L19.62 22.4736H27.1511L25.6316 29.9305Z" fill="black"/>
<path d="M34.7073 22.4737H27.1514L28.6709 15.0173L31.293 15.2667L32.5716 17.4585C32.5716 17.4585 34.3668 20.1242 34.3587 20.1404C34.3587 20.1572 34.7073 22.4656 34.7073 22.4737Z" fill="black"/>
<path d="M23.7017 7.56966H15.0953L16.6066 0.112793H20.4593L22.6597 1.30019L23.3738 3.89088L23.7017 7.56966Z" fill="black"/>
<path d="M7.53065 7.56966H-0.000488281L1.51901 0.112793H9.05019L7.53065 7.56966Z" fill="black"/>
</g>
<path d="M37.9872 28.2424L21.0153 0.998047H23.1055L37.9872 24.9015L52.8686 0.998047H54.959L37.9872 28.2424Z" fill="black"/>
<mask id="mask1_6979_23291" style="mask-type:luminance" maskUnits="userSpaceOnUse" x="19" y="0" width="38" height="31">
<path d="M56.7155 0H19.2584V30.1168H56.7155V0Z" fill="white"/>
<path d="M37.9874 28.2424L21.0154 0.998047H23.1056L37.9874 24.9015L52.8687 0.998047H54.9591L37.9874 28.2424Z" fill="black"/>
</mask>
<g mask="url(#mask1_6979_23291)">
<path d="M37.9875 28.2424L37.1704 28.7513L37.9875 30.0634L38.8046 28.7513L37.9875 28.2424ZM21.0155 0.998028V0.0351562H19.2814L20.1983 1.50699L21.0155 0.998028ZM23.1058 0.998028L23.9231 0.489062L23.6405 0.0351562H23.1058V0.998028ZM37.9875 24.9015L37.1698 25.4104L37.9875 26.7236L38.8046 25.4104L37.9875 24.9015ZM52.8689 0.998028V0.0351562H52.334L52.0517 0.489062L52.8689 0.998028ZM54.9592 0.998028L55.7764 1.50699L56.6934 0.0351562H54.9592V0.998028ZM38.8046 27.7334L21.8328 0.489062L20.1983 1.50699L37.1704 28.7513L38.8046 27.7334ZM21.0155 1.9609H23.1058V0.0351562H21.0155V1.9609ZM22.2884 1.50699L37.1698 25.4104L38.8046 24.3925L23.9231 0.489062L22.2884 1.50699ZM38.8046 25.4104L53.6865 1.50699L52.0517 0.489062L37.1698 24.3925L38.8046 25.4104ZM52.8689 1.9609H54.9592V0.0351562H52.8689V1.9609ZM54.1421 0.489062L37.1704 27.7334L38.8046 28.7513L55.7764 1.50699L54.1421 0.489062Z" fill="black"/>
</g>
<path d="M61.3489 26.009H91.7193V27.796H59.5624V0.998047H61.3489V26.009Z" fill="black"/>
<mask id="mask2_6979_23291" style="mask-type:luminance" maskUnits="userSpaceOnUse" x="58" y="0" width="35" height="29">
<path d="M92.6956 0H58.5848V28.7675H92.6956V0Z" fill="white"/>
<path d="M61.3488 26.009H91.7192V27.796H59.5623V0.998047H61.3488V26.009Z" fill="black"/>
</mask>
<g mask="url(#mask2_6979_23291)">
<path d="M61.3487 26.009H60.3859V26.9719H61.3487V26.009ZM91.7192 26.009H92.682V25.0466H91.7192V26.009ZM91.7192 27.796V28.7583H92.682V27.796H91.7192ZM59.5622 27.796H58.5994V28.7583H59.5622V27.796ZM59.5622 0.998028V0.0351562H58.5994V0.998028H59.5622ZM61.3487 0.998028H62.3111V0.0351562H61.3487V0.998028ZM61.3487 26.9719H91.7192V25.0466H61.3487V26.9719ZM90.7563 26.009V27.796H92.682V26.009H90.7563ZM91.7192 26.8331H59.5622V28.7583H91.7192V26.8331ZM60.5246 27.796V0.998028H58.5994V27.796H60.5246ZM59.5622 1.9609H61.3487V0.0351562H59.5622V1.9609ZM60.3859 0.998028V26.009H62.3111V0.998028H60.3859Z" fill="black"/>
</g>
<path d="M114.351 15.5583L99.5226 27.796H96.7177L112.957 14.3968L96.7177 0.998047H99.5226L114.351 13.2358L129.178 0.998047H131.983L115.762 14.3968L131.983 27.796H129.178L114.351 15.5583Z" fill="black"/>
<mask id="mask3_6979_23291" style="mask-type:luminance" maskUnits="userSpaceOnUse" x="94" y="0" width="41" height="29">
<path d="M134.698 0H94.0028V28.7675H134.698V0Z" fill="white"/>
<path d="M114.35 15.5583L99.5225 27.796H96.7175L112.957 14.3968L96.7175 0.998047H99.5225L114.35 13.2358L129.178 0.998047H131.983L115.762 14.3968L131.983 27.796H129.178L114.35 15.5583Z" fill="black"/>
</mask>
<g mask="url(#mask3_6979_23291)">
<path d="M114.35 15.5582L114.963 14.8156L114.35 14.3099L113.737 14.8156L114.35 15.5582ZM99.5225 27.796V28.7583H99.8685L100.135 28.5381L99.5225 27.796ZM96.7176 27.796L96.105 27.0528L94.0378 28.7583H96.7176V27.796ZM112.957 14.3968L113.569 15.1394L114.47 14.3968L113.569 13.6541L112.957 14.3968ZM96.7176 0.998028V0.0351562H94.0378L96.105 1.74069L96.7176 0.998028ZM99.5225 0.998028L100.135 0.255363L99.8685 0.0351562H99.5225V0.998028ZM114.35 13.2358L113.737 13.9785L114.35 14.4842L114.963 13.9785L114.35 13.2358ZM129.178 0.998028V0.0351562H128.832L128.566 0.255363L129.178 0.998028ZM131.983 0.998028L132.596 1.74069L134.661 0.0351562H131.983V0.998028ZM115.762 14.3968L115.149 13.6546L114.25 14.3968L115.149 15.1394L115.762 14.3968ZM131.983 27.796V28.7583H134.661L132.596 27.0534L131.983 27.796ZM129.178 27.796L128.566 28.5381L128.832 28.7583H129.178V27.796ZM113.737 14.8156L98.9094 27.0534L100.135 28.5381L114.963 16.3009L113.737 14.8156ZM99.5225 26.8331H96.7176V28.7583H99.5225V26.8331ZM97.3302 28.5387L113.569 15.1394L112.344 13.6541L96.105 27.0528L97.3302 28.5387ZM113.569 13.6541L97.3302 0.255363L96.105 1.74069L112.344 15.1394L113.569 13.6541ZM96.7176 1.9609H99.5225V0.0351562H96.7176V1.9609ZM98.9094 1.74069L113.737 13.9785L114.963 12.4931L100.135 0.255363L98.9094 1.74069ZM114.963 13.9785L129.792 1.74069L128.566 0.255363L113.737 12.4931L114.963 13.9785ZM129.178 1.9609H131.983V0.0351562H129.178V1.9609ZM131.37 0.255903L115.149 13.6546L116.375 15.1394L132.596 1.74069L131.37 0.255903ZM115.149 15.1394L131.37 28.5381L132.596 27.0534L116.375 13.6546L115.149 15.1394ZM131.983 26.8331H129.178V28.7583H131.983V26.8331ZM129.792 27.0534L114.963 14.8156L113.737 16.3009L128.566 28.5381L129.792 27.0534Z" fill="black"/>
</g>
<path d="M24.2379 39.8163L20.3279 33.5398H20.8094L24.2379 39.0466L27.6663 33.5398H28.1479L24.2379 39.8163Z" fill="black"/>
<path d="M36.2996 39.7137H35.8883V33.5398H36.2996V39.7137Z" fill="black"/>
<path d="M46.6542 39.7137C45.5564 39.7137 45.0081 39.1648 45.0081 38.067H45.4193C45.4193 38.8906 45.8311 39.3019 46.6542 39.3019H50.7702C51.5933 39.3019 52.0045 38.8906 52.0045 38.067C52.0045 37.2439 51.5933 36.8327 50.7702 36.8327H46.6542C45.5564 36.8327 45.0081 36.2838 45.0081 35.186C45.0081 34.0887 45.5564 33.5398 46.6542 33.5398H50.7702C51.8674 33.5398 52.4164 34.0887 52.4164 35.186H52.0045C52.0045 34.3629 51.5933 33.9516 50.7702 33.9516H46.6542C45.8311 33.9516 45.4193 34.3629 45.4193 35.186C45.4193 36.0096 45.8311 36.4209 46.6542 36.4209H50.7702C51.8674 36.4209 52.4164 36.9698 52.4164 38.067C52.4164 39.1648 51.8674 39.7137 50.7702 39.7137H46.6542Z" fill="black"/>
<path d="M67.465 33.5398V33.9516H63.9665V39.7137H63.5547V33.9516H60.0562V33.5398H67.465Z" fill="black"/>
<path d="M75.2333 39.7137C74.1355 39.7137 73.5865 39.1648 73.5865 38.067V35.186C73.5865 34.0887 74.1355 33.5398 75.2333 33.5398H79.3487C80.4465 33.5398 80.9954 34.0887 80.9954 35.186V38.067C80.9954 39.1648 80.4465 39.7137 79.3487 39.7137H75.2333ZM73.9984 38.067C73.9984 38.8906 74.4102 39.3019 75.2333 39.3019H79.3487C80.1723 39.3019 80.5836 38.8906 80.5836 38.067V35.186C80.5836 34.3629 80.1723 33.9516 79.3487 33.9516H75.2333C74.4102 33.9516 73.9984 34.3629 73.9984 35.186V38.067Z" fill="black"/>
<path d="M94.398 33.5398C95.4953 33.5398 96.0442 34.0887 96.0442 35.186C96.0442 35.8968 95.8153 36.3771 95.3571 36.6265C95.8153 36.8764 96.0442 37.3567 96.0442 38.067V39.7137H95.6329V38.067C95.6329 37.2439 95.2211 36.8327 94.398 36.8327H89.0477V39.7137H88.6359V33.5398H94.398ZM95.6329 35.186C95.6329 34.3629 95.2211 33.9516 94.398 33.9516H89.0477V36.4209H94.398C95.2211 36.4209 95.6329 36.0096 95.6329 35.186Z" fill="black"/>
<path d="M104.299 39.7137H103.887V33.5398H104.299V39.7137Z" fill="black"/>
<path d="M118.86 37.6558L116.712 34.2069L114.563 37.6558H118.86ZM119.115 38.067H114.308L113.283 39.7137H112.802L116.712 33.4373L120.622 39.7137H120.14L119.115 38.067Z" fill="black"/>
<path d="M130.009 39.7137C128.911 39.7137 128.362 39.1648 128.362 38.067H128.774C128.774 38.8906 129.185 39.3019 130.009 39.3019H134.124C134.948 39.3019 135.359 38.8906 135.359 38.067C135.359 37.2439 134.948 36.8327 134.124 36.8327H130.009C128.911 36.8327 128.362 36.2838 128.362 35.186C128.362 34.0887 128.911 33.5398 130.009 33.5398H134.124C135.222 33.5398 135.771 34.0887 135.771 35.186H135.359C135.359 34.3629 134.948 33.9516 134.124 33.9516H130.009C129.185 33.9516 128.774 34.3629 128.774 35.186C128.774 36.0096 129.185 36.4209 130.009 36.4209H134.124C135.222 36.4209 135.771 36.9698 135.771 38.067C135.771 39.1648 135.222 39.7137 134.124 39.7137H130.009Z" fill="black"/>
</svg>
