<svg width="160" height="46" viewBox="0 0 160 46" fill="none" xmlns="http://www.w3.org/2000/svg">
<path d="M20.3771 27.0329L18.9039 35.8141H15.6078L17.0811 27.0329H14.6506L15.0918 24.4194H23.3153L22.8825 27.0329H20.3771ZM27.8182 36.0971C26.4753 36.0971 25.3101 35.6587 24.3224 34.782C23.3347 33.8997 22.8409 32.6373 22.8409 30.9948C22.8409 29.0916 23.393 27.4768 24.4971 26.1506C25.6014 24.819 27.0441 24.1531 28.8253 24.1531C30.2513 24.1531 31.4222 24.6192 32.3377 25.5513C33.2533 26.478 33.7111 27.6932 33.7111 29.197C33.7111 31.117 33.1673 32.7483 32.0797 34.0911C30.9921 35.4284 29.5717 36.0971 27.8182 36.0971ZM27.8432 33.4502C28.4314 33.4502 28.8781 33.2033 29.1832 32.7094C29.4884 32.21 29.7298 31.4803 29.9074 30.5205C30.085 29.5605 30.1736 28.9113 30.1736 28.5728C30.1736 27.9901 30.0378 27.549 29.7659 27.2493C29.4995 26.9497 29.1444 26.7999 28.7005 26.7999C27.8515 26.7999 27.255 27.3908 26.9109 28.5728C26.5669 29.7547 26.3949 30.8007 26.3949 31.7106C26.3949 32.8704 26.8776 33.4502 27.8432 33.4502ZM41.9845 28.7559L44.1569 35.8141H40.8026L39.5208 31.1281L37.7895 33.0507L37.3317 35.8141H34.1689L36.0666 24.4527H39.2295L38.3555 29.6715C38.5386 29.2386 38.8105 28.8114 39.1712 28.3896C39.5375 27.9624 40.1257 27.2577 40.9357 26.2755L42.5505 24.4527H45.8049L41.9845 28.7559ZM56.2507 24.4527L51.5564 30.8949L50.7323 35.8141H47.3447L48.1937 30.7285L45.5219 24.4527H49.1176L50.3078 27.6072C50.3966 27.8181 50.4826 28.0678 50.5659 28.3564L51.1319 27.4741L53.1544 24.4527H56.2507ZM59.8797 36.0971C58.5368 36.0971 57.3715 35.6587 56.3839 34.782C55.3962 33.8997 54.9023 32.6373 54.9023 30.9948C54.9023 29.0916 55.4544 27.4768 56.5587 26.1506C57.6628 24.819 59.1056 24.1531 60.8868 24.1531C62.3129 24.1531 63.4836 24.6192 64.3992 25.5513C65.3148 26.478 65.7726 27.6932 65.7726 29.197C65.7726 31.117 65.2288 32.7483 64.1412 34.0911C63.0536 35.4284 61.6331 36.0971 59.8797 36.0971ZM59.9046 33.4502C60.4928 33.4502 60.9395 33.2033 61.2447 32.7094C61.5499 32.21 61.7913 31.4803 61.9688 30.5205C62.1464 29.5605 62.2352 28.9113 62.2352 28.5728C62.2352 27.9901 62.0992 27.549 61.8273 27.2493C61.561 26.9497 61.2059 26.7999 60.7619 26.7999C59.9129 26.7999 59.3164 27.3908 58.9724 28.5728C58.6284 29.7547 58.4563 30.8007 58.4563 31.7106C58.4563 32.8704 58.9391 33.4502 59.9046 33.4502Z" fill="#111111"/>
<path d="M77.7453 24.4527L72.6436 35.8141H69.3473L67.1416 24.4527H70.6124L71.8612 31.7855C71.9388 31.5691 72.2988 30.7036 72.9432 29.1887L74.9735 24.4527H77.7453ZM81.9654 24.4527L80.0677 35.8141H76.8379L78.7357 24.4527H81.9654ZM92.3951 27.0912L89.4735 27.832C89.3895 27.4935 89.1815 27.2271 88.8485 27.0329C88.5155 26.8387 88.1502 26.7416 87.7503 26.7416C87.0014 26.7416 86.6263 26.9913 86.6263 27.4907C86.6263 27.6516 86.6791 27.7904 86.7847 27.9069C86.8904 28.0234 87.1867 28.1677 87.6749 28.3397L89.4811 28.9806C89.9531 29.1471 90.3917 29.394 90.7969 29.7214C91.201 30.0432 91.4931 30.3984 91.6709 30.7868C91.8476 31.1696 91.9371 31.5802 91.9371 32.0186C91.9371 33.1672 91.4844 34.1161 90.5803 34.8652C89.6815 35.6143 88.4799 35.9889 86.9766 35.9889C85.6888 35.9889 84.5647 35.7281 83.6056 35.2065C82.6508 34.6849 81.9848 33.8886 81.6076 32.8176L84.887 32.1767C85.1704 32.9813 85.8687 33.3836 86.9841 33.3836C87.4507 33.3836 87.7859 33.3004 87.9917 33.1339C88.2019 32.9619 88.3075 32.7677 88.3075 32.5513C88.3075 32.4126 88.2665 32.2905 88.1825 32.1851C88.1049 32.0796 88.0198 32.0047 87.9249 31.9603C87.8365 31.9104 87.4066 31.7439 86.6349 31.4609C85.5918 31.078 84.859 30.7757 84.4376 30.5538C84.0216 30.3262 83.6714 29.9905 83.389 29.5466C83.111 29.1027 82.973 28.5811 82.973 27.9818C82.973 26.9441 83.3524 26.0674 84.1132 25.3517C84.8784 24.6303 86.0465 24.2696 87.6167 24.2696C88.8151 24.2696 89.8421 24.5221 90.6967 25.0271C91.5513 25.5319 92.117 26.22 92.3951 27.0912ZM98.9699 27.0329L97.4967 35.8141H94.2012L95.6744 27.0329H93.2432L93.685 24.4194H101.908L101.475 27.0329H98.9699ZM106.411 36.0971C105.068 36.0971 103.903 35.6587 102.915 34.782C101.927 33.8997 101.433 32.6373 101.433 30.9948C101.433 29.0916 101.986 27.4768 103.09 26.1506C104.194 24.819 105.637 24.1531 107.418 24.1531C108.845 24.1531 110.015 24.6192 110.931 25.5513C111.846 26.478 112.304 27.6932 112.304 29.197C112.304 31.117 111.761 32.7483 110.672 34.0911C109.585 35.4284 108.165 36.0971 106.411 36.0971ZM106.436 33.4502C107.024 33.4502 107.471 33.2033 107.777 32.7094C108.082 32.21 108.323 31.4803 108.5 30.5205C108.678 29.5605 108.767 28.9113 108.767 28.5728C108.767 27.9901 108.63 27.549 108.359 27.2493C108.092 26.9497 107.737 26.7999 107.294 26.7999C106.445 26.7999 105.848 27.3908 105.504 28.5728C105.16 29.7547 104.988 30.8007 104.988 31.7106C104.988 32.8704 105.47 33.4502 106.436 33.4502ZM121.202 31.0532L122.434 35.8141H119.071L118.072 31.4942H116.723L115.999 35.8141H112.762L114.66 24.4527H119.62C120.968 24.4527 121.967 24.7496 122.616 25.3434C123.266 25.9314 123.59 26.7333 123.59 27.7487C123.59 29.3746 122.794 30.4761 121.202 31.0532ZM117.115 29.1304H118.397C119.629 29.1304 120.244 28.7143 120.244 27.8819C120.244 27.1827 119.728 26.8332 118.697 26.8332H117.506L117.115 29.1304ZM129.209 24.4527L127.311 35.8141H124.082L125.979 24.4527H129.209ZM135.368 33.4918H132.321L131.264 35.8141H128.452L133.703 24.4527H137.266L139.039 35.8141H135.684L135.368 33.4918ZM135.169 31.1446L134.711 27.8569L133.212 31.1446H135.169Z" fill="#E42E30"/>
<path d="M68.9007 18.2043C54.8911 16.4644 44.2748 13.8072 32.116 11.1789C25.9668 9.82965 21.837 9.27853 15.2764 12.1085C5.08797 15.9831 -0.00012207 28.1172 -0.00012207 28.1172C9.6577 18.3646 20.0933 12.1085 33.2227 12.1085C53.0995 16.2413 37.6576 25.0803 58.1204 16.5995C23.108 23.8354 83.4558 19.9581 64.1893 17.5683L68.9007 18.2043Z" fill="#111111"/>
<path d="M112.997 12.9431C112.997 12.9431 87.204 -1.4164 71.4248 0.114212C48.723 2.31524 38.422 10.6029 19.2955 10.8812C19.2955 10.8812 35.6129 11.9743 56.2532 8.67281C83.4127 4.32551 80.9341 1.36851 112.997 12.9474V12.9431Z" fill="#111111"/>
<path d="M85.8999 24.5955C91.7074 24.5955 96.5332 23.3506 103.208 21.6352C106.419 20.8089 110.06 19.868 114.397 18.9271C115.437 18.7034 116.447 18.4624 117.444 18.2271C121.176 17.3437 124.698 16.5117 129.112 16.5117C136.362 16.5117 144.882 18.8296 156.415 23.976C151.254 21.136 141.186 15.961 133.88 14.498C131.925 14.1079 129.816 13.9185 127.43 13.9185C120.003 13.9185 111.018 15.8118 100.615 18.0034C97.793 18.6001 94.8747 19.214 91.8324 19.8222C89.5133 20.2869 87.151 20.5221 84.8082 20.5221C74.1415 20.5221 66.1537 15.634 63.4656 13.7407C65.7369 16.4142 72.7373 23.6546 82.5074 24.4464C83.6529 24.5382 84.7985 24.5841 85.8999 24.5841V24.5955Z" fill="#E42E30"/>
<path d="M127.43 14.0905C120.012 14.0905 111.037 15.9839 100.639 18.1754C97.8167 18.7721 94.8995 19.3861 91.8518 19.9942C89.523 20.4589 87.151 20.6998 84.8028 20.6998C75.2245 20.6998 67.8021 16.7698 64.4096 14.584C67.2846 17.705 73.7912 23.5799 82.5128 24.2856C83.6573 24.3774 84.7931 24.4233 85.8956 24.4233C91.6891 24.4233 96.5041 23.1841 103.174 21.4686C106.39 20.6425 110.031 19.7016 114.367 18.7607C115.407 18.5369 116.428 18.2959 117.411 18.0607C121.148 17.1772 124.68 16.3395 129.107 16.3395C135.586 16.3395 143.074 18.1869 152.807 22.2374C147.354 19.4089 139.711 15.8404 133.846 14.67C131.9 14.2799 129.796 14.0905 127.42 14.0905M62.5552 12.8743C62.5552 12.8743 71.5346 20.3556 84.7985 20.3556C87.0217 20.3556 89.3603 20.1433 91.799 19.6557C106.188 16.7641 117.985 13.7463 127.42 13.7463C129.716 13.7463 131.872 13.9241 133.894 14.3258C144.214 16.3854 159.812 25.7199 159.812 25.7199C144.876 18.7032 135.94 16.6838 129.102 16.6838C123.52 16.6838 119.332 18.032 114.411 19.0992C101.205 21.9677 94.5535 24.7675 85.8902 24.7675C84.7931 24.7675 83.667 24.7217 82.4891 24.6299C70.3321 23.6488 62.5552 12.88 62.5552 12.88V12.8743Z" fill="#E42E30"/>
<path d="M111.521 45.539C111.136 45.4726 110.75 45.4566 110.36 45.4234C109.975 45.3941 109.588 45.3479 109.205 45.2884C108.354 45.1503 107.499 45.0119 106.648 44.8805C105.005 44.625 103.36 44.403 101.708 44.2309C100.193 44.0715 98.6755 43.9388 97.1528 43.8359C96.7584 43.8093 96.3672 43.7829 95.9717 43.7629C94.4651 43.678 92.9542 43.5962 91.4466 43.5346C87.9161 43.3938 84.3868 43.2529 80.8563 43.1791C77.4057 43.1074 73.955 43.0492 70.5042 43.0279C68.8076 43.0176 67.1114 43.0005 65.4142 43.0002C63.579 43.0006 61.7449 42.9843 59.912 43.0017C56.1286 43.0352 52.3415 43.0719 48.5579 43.1088C45.2718 43.1424 41.9907 43.304 38.7163 43.5635C36.6007 43.7332 34.4886 43.9535 32.3842 44.2081C34.7627 44.5233 37.1495 44.7651 39.5437 44.947C41.1087 45.0661 42.6765 45.1417 44.2467 45.1839C45.2598 45.212 46.2741 45.2233 47.2859 45.2211C47.9078 45.2193 48.5314 45.1942 49.1541 45.1791C50.8209 45.1338 52.4879 45.085 54.1545 45.0429C56.0601 44.9935 57.967 44.9273 59.8746 44.8982C61.8397 44.8662 63.8049 44.8308 65.7732 44.799C67.5397 44.7705 69.3078 44.7689 71.0733 44.7536C72.7986 44.739 74.5218 44.7579 76.245 44.7634C77.9822 44.7698 79.7183 44.8029 81.4577 44.8263C83.224 44.8514 84.9935 44.9206 86.7576 44.9726C89.9852 45.0661 93.2096 45.2435 96.4297 45.4408C98.2208 45.5516 100.018 45.6058 101.813 45.6665C103.58 45.7253 105.352 45.7643 107.122 45.7763C107.841 45.7811 108.565 45.7999 109.283 45.7743C109.633 45.7644 109.981 45.7442 110.327 45.697C110.632 45.6537 110.936 45.5868 111.244 45.5505C111.336 45.5432 111.43 45.5429 111.521 45.539Z" fill="#111111"/>
</svg>
